# xmcd
# 
# Track frame offsets:
#     150
#     12326
#     28889
#     43831
#     55753
#     63938
#     77962
#     98250
#     108072
#     118886
#     145785
#     160102
#     171566
#     184105
#     200402
#     215204
#     227089
#     235286
#     249152
#     269419
#     279161
#     290085
#     316973
#     331295
# 
# Disc length: 4567
# 
# Revision: 0
# Processed by: cddbd v1.5.2PL0 Copyright (c) Steve Scherf et al.
# Submitted via: fre:ac v1.0.17
# 
DISCID=5c11d518
DTITLE=John Mayall With Eric Clapton - Bluesbreakers
DYEAR=1966
DGENRE=Blues
TTITLE0=Bluesbreakers
TTITLE1=Bluesbreakers
TTITLE2=Bluesbreakers
TTITLE3=Bluesbreakers
TTITLE4=Bluesbreakers
TTITLE5=Bluesbreakers
TTITLE6=Bluesbreakers
TTITLE7=Bluesbreakers
TTITLE8=Bluesbreakers
TTITLE9=Bluesbreakers
TTITLE10=Bluesbreakers
TTITLE11=Bluesbreakers
TTITLE12=It Ain't Right\n
TTITLE13=All Your Love
TTITLE14=Hideaway
TTITLE15=Little Girl
TTITLE16=Another Man
TTITLE17=Double Crossing Time
TTITLE18=What'd I Say
TTITLE19=Key To Love
TTITLE20=Parchman Farm
TTITLE21=Have You Heard
TTITLE22=Ramblin' On My Mind
TTITLE23=Steppin' Out
EXTD=
EXTT0=
EXTT1=
EXTT2=
EXTT3=
EXTT4=
EXTT5=
EXTT6=
EXTT7=
EXTT8=
EXTT9=
EXTT10=
EXTT11=
EXTT12=
EXTT13=
EXTT14=
EXTT15=
EXTT16=
EXTT17=
EXTT18=
EXTT19=
EXTT20=
EXTT21=
EXTT22=
EXTT23=
PLAYORDER=
